<?xml version="1.0" standalone="no"?>
<!DOCTYPE svg PUBLIC "-//W3C//DTD SVG 20010904//EN"
 "http://www.w3.org/TR/2001/REC-SVG-20010904/DTD/svg10.dtd">
<svg version="1.0" xmlns="http://www.w3.org/2000/svg"
 width="500.000000pt" height="111.000000pt" viewBox="0 0 500.000000 111.000000"
 preserveAspectRatio="xMidYMid meet">

<g transform="translate(0.000000,111.000000) scale(0.100000,-0.100000)"
fill="#000000" stroke="none">
<path d="M1919 941 c-119 -13 -177 -52 -207 -140 -15 -44 -16 -441 -1 -494 14
-52 75 -111 130 -126 115 -32 509 -22 579 14 41 21 88 80 97 122 4 21 8 137 8
258 0 188 -2 224 -17 251 -24 44 -81 91 -125 104 -49 13 -366 21 -464 11z
m381 -380 c0 -91 -4 -142 -11 -147 -6 -3 -89 -3 -185 1 l-174 7 0 139 0 139
185 0 185 0 0 -139z"/>
<path d="M2785 941 c-87 -9 -114 -19 -158 -60 -58 -53 -61 -68 -65 -296 -5
-253 3 -300 58 -355 56 -56 105 -65 360 -65 139 0 229 5 256 13 60 17 104 51
128 97 20 37 21 56 21 280 0 235 -1 241 -24 282 -28 49 -64 77 -117 92 -50 14
-355 22 -459 12z m375 -386 l0 -145 -185 0 -185 0 0 145 0 145 185 0 185 0 0
-145z"/>
<path d="M162 929 c-65 -12 -108 -44 -134 -97 -22 -45 -23 -56 -23 -282 0
-253 2 -266 57 -317 45 -43 93 -54 247 -60 168 -6 334 8 386 32 55 27 79 68
83 146 4 61 2 67 -22 86 -39 31 -206 102 -266 113 -78 15 -75 24 5 17 81 -6
156 -32 238 -82 l57 -34 0 45 c0 38 -5 51 -30 74 -81 76 -278 82 -331 11 -12
-16 -34 -31 -49 -35 -17 -3 -31 -14 -35 -26 -9 -27 0 -36 19 -21 24 20 121
-15 160 -58 l19 -21 -161 0 -162 0 0 135 0 135 273 0 c149 0 278 4 285 8 9 6
12 38 10 123 l-3 114 -290 1 c-159 1 -309 -2 -333 -7z"/>
<path d="M867 569 c-4 -267 -3 -377 5 -386 8 -10 39 -13 122 -11 l111 3 5 174
5 175 164 -177 164 -177 129 0 c108 0 130 3 135 16 4 11 -27 49 -105 127
l-112 112 42 20 c60 29 89 88 95 197 7 104 -10 188 -45 229 -51 61 -66 63
-403 67 l-306 4 -6 -373z m521 112 c8 -5 12 -17 10 -27 -3 -17 -15 -19 -146
-22 l-142 -3 0 31 0 30 133 0 c72 0 138 -4 145 -9z"/>
<path d="M3444 927 c-2 -7 -3 -60 -2 -118 l3 -104 122 -3 123 -3 2 -262 3
-262 114 -3 c85 -2 117 1 123 10 4 7 8 127 8 266 l0 252 119 0 c99 0 120 3
125 16 11 29 7 199 -6 212 -18 18 -727 17 -734 -1z"/>
<path d="M4365 929 c-88 -21 -130 -101 -129 -244 1 -100 15 -143 61 -187 45
-43 73 -48 258 -48 95 0 180 -3 189 -6 9 -3 16 -15 16 -25 0 -18 -11 -19 -254
-19 -209 0 -256 -3 -266 -15 -16 -19 4 -112 33 -157 39 -57 46 -59 332 -56
241 3 263 5 300 24 59 30 87 88 93 187 8 131 -24 221 -92 260 -14 8 -91 14
-226 17 -197 5 -205 6 -205 25 0 19 8 20 260 25 l260 5 -1 55 c-1 69 -23 111
-71 142 -37 22 -45 23 -278 25 -132 1 -258 -3 -280 -8z"/>
</g>
</svg>
